<?xml version="1.0" standalone="no"?>
<!DOCTYPE svg PUBLIC "-//W3C//DTD SVG 20010904//EN"
 "http://www.w3.org/TR/2001/REC-SVG-20010904/DTD/svg10.dtd">
<svg version="1.0" xmlns="http://www.w3.org/2000/svg"
 width="512.000000pt" height="512.000000pt" viewBox="0 0 512.000000 512.000000"
 preserveAspectRatio="xMidYMid meet">

<g transform="translate(0.000000,512.000000) scale(0.100000,-0.100000)"
fill="#000000" stroke="none">
<path d="M1999 4127 c-73 -48 -69 9 -69 -972 0 -967 0 -956 -61 -1080 -38 -78
-129 -180 -200 -225 -28 -18 -80 -44 -117 -58 -63 -24 -81 -26 -314 -31 -271
-7 -272 -7 -322 -75 -20 -26 -21 -42 -24 -314 -3 -321 0 -334 67 -379 l34 -23
604 0 c504 0 608 2 631 14 15 8 57 48 94 89 167 185 331 181 488 -11 81 -100
21 -92 711 -92 l606 0 33 22 c69 47 71 59 68 380 -3 272 -4 288 -24 314 -50
68 -51 68 -322 75 -231 5 -251 7 -312 30 -143 54 -254 156 -320 293 -58 122
-73 239 -50 400 66 456 463 704 1260 787 58 6 207 14 332 18 249 7 253 8 302
75 20 26 21 42 24 349 3 360 1 369 -67 414 l-34 23 -1492 0 -1492 0 -34 -23z"/>
<path d="M72 3890 c-72 -44 -87 -114 -57 -281 63 -359 309 -649 650 -766 137
-46 211 -53 601 -53 l364 0 0 560 0 560 -762 0 c-744 0 -764 -1 -796 -20z"/>
</g>
</svg>
