<?xml version="1.0" standalone="no"?>
<!DOCTYPE svg PUBLIC "-//W3C//DTD SVG 20010904//EN"
 "http://www.w3.org/TR/2001/REC-SVG-20010904/DTD/svg10.dtd">
<svg version="1.0" xmlns="http://www.w3.org/2000/svg"
 width="128.000000pt" height="128.000000pt" viewBox="0 0 128.000000 128.000000"
 preserveAspectRatio="xMidYMid meet">

<g transform="translate(0.000000,128.000000) scale(0.100000,-0.100000)"
fill="#000000" stroke="none">
<path d="M1015 1185 c-201 -44 -441 -185 -549 -323 -39 -49 -39 -50 -98 -51
-138 -2 -237 -96 -279 -264 -7 -30 -8 -52 -2 -58 5 -5 37 -5 83 1 41 5 94 10
118 10 41 0 42 -1 42 -32 0 -24 11 -43 53 -85 42 -42 61 -53 85 -53 29 0 32
-3 32 -33 0 -18 -5 -70 -10 -116 -7 -55 -8 -87 -1 -94 6 -6 26 -6 58 2 167 42
262 141 263 276 l0 60 51 40 c116 91 248 297 304 475 32 101 44 222 25 245
-15 19 -90 19 -175 0z m-111 -284 c26 -27 31 -39 31 -81 0 -43 -5 -54 -33 -82
-28 -28 -39 -33 -82 -33 -43 0 -54 5 -82 33 -28 28 -33 39 -33 81 0 52 25 92
70 112 37 16 96 3 129 -30z"/>
<path d="M222 423 c-19 -9 -40 -27 -49 -39 -20 -31 -39 -109 -48 -193 -8 -82
-13 -79 105 -61 139 22 187 52 206 125 6 26 5 28 -17 20 -13 -4 -43 -10 -66
-12 -36 -4 -46 -1 -68 22 -23 22 -26 32 -22 68 2 23 8 52 12 65 9 27 -6 29
-53 5z"/>
</g>
</svg>
