<svg xmlns="http://www.w3.org/2000/svg" viewBox="0 0 512 512">
<path d="M 303 106 L 302 107 L 299 107 L 298 108 L 297 108 L 296 109 L 295 109 L 294 110 L 293 110 L 292 111 L 291 111 L 284 118 L 284 119 L 282 121 L 282 122 L 281 123 L 281 124 L 280 125 L 280 127 L 279 128 L 279 130 L 278 131 L 278 144 L 279 145 L 279 148 L 280 149 L 280 150 L 281 151 L 281 152 L 282 153 L 282 154 L 283 155 L 283 156 L 291 164 L 292 164 L 293 165 L 294 165 L 295 166 L 296 166 L 297 167 L 298 167 L 299 168 L 301 168 L 302 169 L 401 169 L 402 170 L 272 300 L 184 212 L 183 212 L 182 211 L 181 211 L 180 210 L 179 210 L 178 209 L 176 209 L 175 208 L 172 208 L 171 207 L 161 207 L 160 208 L 156 208 L 155 209 L 154 209 L 153 210 L 152 210 L 151 211 L 150 211 L 149 212 L 148 212 L 146 214 L 145 214 L 7 352 L 7 353 L 4 356 L 4 357 L 3 358 L 3 359 L 2 360 L 2 362 L 1 363 L 1 365 L 0 366 L 0 381 L 1 382 L 1 384 L 2 385 L 2 387 L 3 388 L 3 389 L 4 390 L 4 391 L 8 395 L 8 396 L 9 397 L 10 397 L 13 400 L 14 400 L 15 401 L 16 401 L 17 402 L 18 402 L 19 403 L 20 403 L 21 404 L 24 404 L 25 405 L 38 405 L 39 404 L 42 404 L 43 403 L 44 403 L 45 402 L 46 402 L 47 401 L 48 401 L 50 399 L 51 399 L 165 285 L 166 285 L 249 368 L 250 368 L 254 372 L 255 372 L 256 373 L 257 373 L 258 374 L 259 374 L 260 375 L 262 375 L 263 376 L 266 376 L 267 377 L 277 377 L 278 376 L 281 376 L 282 375 L 284 375 L 285 374 L 286 374 L 287 373 L 288 373 L 289 372 L 290 372 L 293 369 L 294 369 L 447 216 L 448 217 L 448 314 L 449 315 L 449 318 L 450 319 L 450 320 L 451 321 L 451 322 L 452 323 L 452 324 L 453 325 L 453 326 L 461 334 L 462 334 L 463 335 L 464 335 L 465 336 L 466 336 L 467 337 L 468 337 L 469 338 L 472 338 L 473 339 L 487 339 L 488 338 L 490 338 L 491 337 L 493 337 L 494 336 L 495 336 L 497 334 L 498 334 L 501 331 L 502 331 L 503 330 L 503 329 L 506 326 L 506 325 L 508 323 L 508 322 L 509 321 L 509 319 L 510 318 L 510 316 L 511 315 L 511 130 L 510 129 L 510 127 L 509 126 L 509 124 L 508 123 L 508 122 L 506 120 L 506 119 L 498 111 L 497 111 L 495 109 L 494 109 L 493 108 L 491 108 L 490 107 L 487 107 L 486 106 Z" fill="white"/>
</svg>