<?xml version="1.0" standalone="no"?>
<!DOCTYPE svg PUBLIC "-//W3C//DTD SVG 20010904//EN"
 "http://www.w3.org/TR/2001/REC-SVG-20010904/DTD/svg10.dtd">
<svg version="1.0" xmlns="http://www.w3.org/2000/svg"
 width="2048.000000pt" height="2048.000000pt" viewBox="0 0 2048.000000 2048.000000"
 preserveAspectRatio="xMidYMid meet">

<g transform="translate(0.000000,2048.000000) scale(0.100000,-0.100000)"
fill="#000000" stroke="none">
<path d="M9965 14360 c-929 -69 -1776 -421 -2465 -1027 -337 -296 -644 -671
-855 -1042 -312 -550 -488 -1138 -535 -1786 -23 -324 -17 -430 81 -1315 27
-246 61 -468 114 -736 419 -2119 1587 -4121 3330 -5704 113 -102 174 -146 268
-191 104 -49 200 -69 337 -69 137 0 233 20 337 69 94 45 155 89 268 191 1626
1478 2751 3314 3238 5290 127 515 189 908 249 1580 60 679 39 1085 -82 1586
-364 1506 -1538 2680 -3044 3044 -309 75 -574 108 -905 115 -119 2 -270 0
-336 -5z"/>
</g>
</svg>
